# xmcd
#
# Track frame offsets: 
#        150
#        4485
#        16565
#        34200
#        48492
#        59505
#        74357
#        90804
#        106502
#        129837
#        146807
#        156780
#        168067
#        176207
#        191927
#        213700
#        223105
#        236697
#        249505
#        277952
#
# Disc length: 3856 seconds
#
# Revision: 3
# Processed by: cddbd v1.5.2PL0 Copyright (c) Steve Scherf et al.
# Submitted via: ExactAudioCopy v0.99pb5
#
DISCID=1a0f0e14
DTITLE=The Speer Family - 75th diamond Jubilee
DYEAR=1996
DGENRE=Southern Gospel
TTITLE0=Vamp and Intro
TTITLE1=Some Glad Day Afterwhile
TTITLE2=Diamond Jubilee
TTITLE3=Family and Friends
TTITLE4=All Aboard
TTITLE5=I Want To Thank You, Lord
TTITLE6=No Longer A Stranger
TTITLE7=What A Day That Will Be
TTITLE8=In The Midst Of It All
TTITLE9=Safe In My Father's Arms
TTITLE10=I'm Taking It With Me
TTITLE11=The Dearest Friend I Ever Had
TTITLE12=Heaven's Jubilee
TTITLE13=All Day Singing, Dinner On The Ground
TTITLE14=Through All These Years
TTITLE15=I want To Be Ready To Meet Him
TTITLE16=Sweeter Each Day
TTITLE17=Happy Singing Band
TTITLE18=Blessed Assurance
TTITLE19=Heaven's Jubilee (reprise)
EXTD=YEAR: 1996 ID3G: 38
EXTT0=
EXTT1=
EXTT2=
EXTT3=
EXTT4=
EXTT5=
EXTT6=
EXTT7=
EXTT8=
EXTT9=
EXTT10=
EXTT11=
EXTT12=
EXTT13=
EXTT14=
EXTT15=
EXTT16=
EXTT17=
EXTT18=
EXTT19=
PLAYORDER=
